# xmcd CD database file
#
# Track frame offsets:
#	150
#	14667
#	32612
#	48267
#	65030
#	77529
#	90132
#	103685
#	124854
#	140020
#	155700
#
# Disc length: 2410 seconds
#
# Revision: 2
# Processed by: cddbd v1.5.2PL0 Copyright (c) Steve Scherf et al.
# Submitted via: CDex 1.51
#
DISCID=8c09680b
DTITLE=Shadowplay - Raw Powder
DYEAR=1997
DGENRE=Rock
TTITLE0=Cling to It
TTITLE1=Rose
TTITLE2=There's Been a Few
TTITLE3=Gone Forever
TTITLE4=Sunshine
TTITLE5=Tremble on
TTITLE6=That's All I'm Waiting for
TTITLE7=Ragged Tragedy Doll
TTITLE8=Try Not to Lose It
TTITLE9=After You
TTITLE10=Fake That
EXTD=YEAR: 1997
EXTT0=
EXTT1=
EXTT2=
EXTT3=
EXTT4=
EXTT5=
EXTT6=
EXTT7=
EXTT8=
EXTT9=
EXTT10=
PLAYORDER=
